# xmcd CD database file
#
# Track frame offsets:
#	150
#	22123
#	43371
#	59950
#	79482
#	98240
#	116212
#	130575
#	154170
#	181019
#	203854
#	233217
#	252241
#	272799
#	286633
#	305028
#	323229
#
# Disc length: 4549 seconds
#
# Revision: 0
# Processed by: cddbd v1.5.1PL2 Copyright (c) Steve Scherf et al.
# Submitted via: CDex 1.51
#
DISCID=0111c311
DTITLE=Diversos - Cantorias de Viola 01
DYEAR=2006
DGENRE=Folklore Nacional
TTITLE0=01-Abertura-Elomar-Geraldo-Vital-Xangai
TTITLE1=02-Novena-Elomar-Geraldo Azev-Vital Far-Xanga
TTITLE2=03-Sete cantigas para voar-Elomar-Geraldo Azev-Vital Far-Xangai
TTITLE3=04-Sabor colorido-Moca bonita-Elomar-Geraldo Azev-Vital Far-Xangai
TTITLE4=05-Ai d eu sodade-Elomar-Geraldo Azev-Vital Far-Xangai
TTITLE5=06-Arrumacao-Elomar-Geraldo Azev-Vital Far-Xangai
TTITLE6=07-Estampas Eucalol-Elomar-Geraldo Azev-Vital Far-Xangai
TTITLE7=08-Cantiga do estradar-Elomar-Geraldo Azev-Vital Far-Xangai
TTITLE8=09-Saga de Severinin-Elomar-Geraldo Azev-Vital Far-Xangai
TTITLE9=10-Cantilena de lua cheia-Elomar-Geraldo Azev-Vital Far-Xangai
TTITLE10=11-Cantiga de amigo-Elomar-Geraldo Azev-Vital Far-Xangai
TTITLE11=12-Matansa-Elomar-Geraldo Azev-Vital Far-Xangai
TTITLE12=13-Na quadrada das aguas perdidas-Elomar-Geraldo Azev-Vital Far-Xangai
TTITLE13=14-Semente de adao-Viramundo-Elomar-Geraldo Azev-Vital Far-Xangai
TTITLE14=15-Era casa era jardim-Elomar-Geraldo Azev-Vital Far-Xangai
TTITLE15=16-Ai que saudade de oce-Elomar-Geraldo Azev-Vital Far-Xangai
TTITLE16=17-Vida marvada-Rolando Boldrin
EXTD=YEAR: 2006
EXTT0=
EXTT1=
EXTT2=
EXTT3=
EXTT4=
EXTT5=
EXTT6=
EXTT7=
EXTT8=
EXTT9=
EXTT10=
EXTT11=
EXTT12=
EXTT13=
EXTT14=
EXTT15=
EXTT16=
PLAYORDER=
